<?xml version="1.0" encoding="UTF-8" standalone="no"?>
<!-- Created with Inkscape (http://www.inkscape.org/) -->

<svg
   xmlns:dc="http://purl.org/dc/elements/1.1/"
   xmlns:cc="http://creativecommons.org/ns#"
   xmlns:rdf="http://www.w3.org/1999/02/22-rdf-syntax-ns#"
   xmlns:svg="http://www.w3.org/2000/svg"
   xmlns="http://www.w3.org/2000/svg"
   xmlns:xlink="http://www.w3.org/1999/xlink"
   xmlns:sodipodi="http://sodipodi.sourceforge.net/DTD/sodipodi-0.dtd"
   xmlns:inkscape="http://www.inkscape.org/namespaces/inkscape"
   width="64"
   height="64"
   viewBox="0 0 64 64"
   id="svg4197"
   version="1.1"
   inkscape:version="0.91 r13725"
   sodipodi:docname="gem6.svg"
   inkscape:export-filename="gem6.png"
   inkscape:export-xdpi="90"
   inkscape:export-ydpi="90">
  <defs
     id="defs4199" />
  <sodipodi:namedview
     id="base"
     pagecolor="#ffffff"
     bordercolor="#666666"
     borderopacity="1.0"
     inkscape:pageopacity="0.0"
     inkscape:pageshadow="2"
     inkscape:zoom="1"
     inkscape:cx="30"
     inkscape:cy="32"
     inkscape:document-units="in"
     inkscape:current-layer="layer1"
     showgrid="false"
     units="px"
     inkscape:window-width="1920"
     inkscape:window-height="1018"
     inkscape:window-x="-8"
     inkscape:window-y="-8"
     inkscape:window-maximized="1" />
  <metadata
     id="metadata4202">
    <rdf:RDF>
      <cc:Work
         rdf:about="">
        <dc:format>image/svg+xml</dc:format>
        <dc:type
           rdf:resource="http://purl.org/dc/dcmitype/StillImage" />
        <dc:title></dc:title>
      </cc:Work>
    </rdf:RDF>
  </metadata>
  <g
     inkscape:label="Layer 1"
     inkscape:groupmode="layer"
     id="layer1"
     transform="translate(0,-988.3622)">
    <path
       style="fill:#9f9f9f;fill-opacity:1;stroke:#000000;stroke-width:3;stroke-miterlimit:4;stroke-dasharray:none;stroke-opacity:1"
       d="m 51.297998,1020.3622 c 2e-6,3.5232 -1.414747,21.8075 -2.345739,24.7179 -0.930991,2.9105 -3.090902,-8.7538 -4.663398,-6.6746 -1.572496,2.0793 -2.468424,5.9865 -4.777205,7.2777 -2.308782,1.2913 -4.847157,-8.4729 -7.511656,-8.4729 -2.664499,0 -5.202874,9.4627 -7.511656,8.1714 -2.308781,-1.2912 -3.204709,-4.8969 -4.777205,-6.9762 -1.572496,-2.0792 -3.732407,10.0163 -4.663398,7.1059 -0.930992,-2.9105 -2.345741,-21.626 -2.345739,-25.1492 9e-6,-14.0927 8.640002,-25.5171 19.297998,-25.5171 10.657996,0 19.297989,11.4244 19.297998,25.5171 z"
       id="path6570"
       inkscape:connector-curvature="0"
       sodipodi:nodetypes="sssssssssss" />
    <ellipse
       style="fill:#a6163c;fill-opacity:1;stroke:none;stroke-width:3;stroke-miterlimit:4;stroke-dasharray:none;stroke-opacity:1"
       id="path7113"
       cx="24.19788"
       cy="1008.6779"
       rx="4.8038592"
       ry="3.1385207" />
    <use
       x="0"
       y="0"
       xlink:href="#path7113"
       id="use7141"
       transform="translate(15.60424,0)"
       width="100%"
       height="100%" />
  </g>
</svg>
